<?xml version="1.0" standalone="no"?>
<!DOCTYPE svg PUBLIC "-//W3C//DTD SVG 20010904//EN"
 "http://www.w3.org/TR/2001/REC-SVG-20010904/DTD/svg10.dtd">
<svg version="1.0" xmlns="http://www.w3.org/2000/svg"
 width="160.000000pt" height="160.000000pt" viewBox="0 0 160.000000 160.000000"
 preserveAspectRatio="xMidYMid meet">

<g transform="translate(0.000000,160.000000) scale(0.100000,-0.100000)"
fill="#000000" stroke="none">
<path d="M1045 1528 c-56 -44 -73 -153 -35 -235 26 -57 61 -74 98 -46 45 33
74 96 74 162 0 117 -66 175 -137 119z"/>
<path d="M1312 1449 c-61 -39 -102 -139 -88 -214 24 -126 225 4 226 146 0 79
-68 113 -138 68z"/>
<path d="M817 1349 c-41 -24 -62 -130 -36 -182 22 -43 62 -77 90 -77 58 0 100
124 69 200 -24 57 -80 84 -123 59z"/>
<path d="M1434 1186 c-67 -30 -116 -146 -85 -204 17 -32 84 -30 132 2 70 48
93 155 43 195 -31 24 -47 25 -90 7z"/>
<path d="M1050 1131 c-86 -27 -170 -96 -219 -183 -38 -65 -39 -97 -5 -129 24
-22 33 -24 139 -24 92 0 116 -3 132 -17 60 -55 176 -75 214 -37 19 19 21 29
16 88 -7 83 -28 142 -73 208 -61 89 -124 118 -204 94z"/>
<path d="M490 907 c-32 -15 -70 -90 -70 -137 0 -120 82 -208 139 -151 69 69
77 200 18 265 -28 31 -56 39 -87 23z"/>
<path d="M181 814 c-63 -80 32 -264 135 -264 44 0 58 27 58 106 -1 102 -62
184 -138 184 -25 0 -40 -7 -55 -26z"/>
<path d="M714 720 c-12 -5 -31 -25 -44 -45 -43 -69 -12 -204 49 -213 54 -8
111 65 111 141 0 94 -50 144 -116 117z"/>
<path d="M70 540 c-46 -46 -16 -147 59 -197 68 -46 131 -21 131 52 0 114 -125
210 -190 145z"/>
<path d="M376 448 c-65 -67 -96 -141 -103 -248 -5 -67 -3 -78 17 -103 37 -46
117 -33 203 35 39 31 46 33 127 34 47 1 97 6 111 12 71 28 78 82 20 164 -68
94 -157 148 -259 156 l-63 5 -53 -55z"/>
</g>
</svg>
